<svg width="202" height="202" viewBox="0 0 202 202" fill="none" xmlns="http://www.w3.org/2000/svg">
<circle opacity="0.202683" cx="101" cy="101" r="101" transform="matrix(0 1 1 0 0 0)" fill="url(#paint0_linear_0_563)"/>
<path d="M64.2007 90.9342L68.9008 86.1035L64.2007 90.9342Z" fill="white"/>
<path d="M64.2009 91.2042C64.131 91.2047 64.0638 91.1773 64.0141 91.1279C63.9094 91.0225 63.9094 90.8518 64.0141 90.7463L68.685 85.9157C68.7894 85.8154 68.954 85.8159 69.0576 85.917C69.1613 86.018 69.1669 86.1834 69.0704 86.2913L64.3702 91.122C64.3252 91.1686 64.2652 91.1977 64.2009 91.2042Z" fill="#231F20"/>
<path d="M68.9008 90.9342L64.2007 86.1035L68.9008 90.9342Z" fill="white"/>
<path d="M68.9011 91.2033C68.8286 91.2026 68.7594 91.1731 68.7085 91.1212L64.0375 86.2905C63.9876 86.2409 63.9595 86.1733 63.9595 86.1027C63.9595 86.0321 63.9876 85.9645 64.0375 85.9149C64.1423 85.8096 64.3122 85.8096 64.417 85.9149L69.1172 90.7455C69.2187 90.8522 69.2187 91.0204 69.1172 91.127C69.0605 91.1843 68.981 91.2124 68.9011 91.2033Z" fill="#231F20"/>
<path d="M68.9009 90.9342L73.601 86.1035L68.9009 90.9342Z" fill="white"/>
<path d="M68.9007 91.2038C68.8307 91.205 68.7632 91.1775 68.7139 91.1275C68.6123 91.0208 68.6123 90.8527 68.7139 90.746L73.3848 85.9153C73.4342 85.8652 73.5015 85.8369 73.5717 85.8369C73.6419 85.8369 73.7092 85.8652 73.7585 85.9153C73.81 85.9641 73.8391 86.0321 73.8391 86.1032C73.8391 86.1743 73.81 86.2422 73.7585 86.291L69.0876 91.1216C69.0381 91.1721 68.9712 91.2016 68.9007 91.2038Z" fill="#231F20"/>
<path d="M73.601 90.9342L68.9009 86.1035L73.601 90.9342Z" fill="white"/>
<path d="M73.601 91.2042C73.5285 91.2034 73.4592 91.1739 73.4083 91.122L68.7373 86.2913C68.6408 86.1834 68.6464 86.018 68.7501 85.917C68.8537 85.8159 69.0183 85.8154 69.1227 85.9157L73.7936 90.7463C73.8454 90.7962 73.8747 90.8651 73.8747 90.9371C73.8747 91.0091 73.8454 91.078 73.7936 91.1279C73.7438 91.1807 73.6732 91.2086 73.601 91.2042Z" fill="#231F20"/>
<path d="M73.6011 90.9342L78.2954 86.1035L73.6011 90.9342Z" fill="white"/>
<path d="M73.6013 91.204C73.531 91.2067 73.463 91.1789 73.4144 91.1277C73.3098 91.0223 73.3098 90.8516 73.4144 90.7462L78.1146 85.9156C78.2209 85.8322 78.3722 85.8409 78.4683 85.936C78.5644 86.0311 78.5754 86.1831 78.4941 86.2912L73.794 91.1219C73.7431 91.1738 73.6738 91.2033 73.6013 91.204Z" fill="#231F20"/>
<path d="M78.2954 90.9342L73.6011 86.1035L78.2954 90.9342Z" fill="white"/>
<path d="M78.3129 91.204C78.2419 91.2045 78.174 91.1746 78.1261 91.1219L73.4259 86.2912C73.3446 86.1831 73.3556 86.0311 73.4517 85.936C73.5478 85.8409 73.6991 85.8322 73.8054 85.9156L78.5056 90.7462C78.6103 90.8516 78.6103 91.0223 78.5056 91.1277C78.4549 91.1792 78.3849 91.2069 78.3129 91.204Z" fill="#231F20"/>
<path d="M78.2954 90.9342L82.9956 86.1035L78.2954 90.9342Z" fill="white"/>
<path d="M78.3127 91.2042C78.2428 91.2047 78.1756 91.1773 78.1259 91.1279C78.0212 91.0225 78.0212 90.8518 78.1259 90.7463L82.7968 85.9157C82.9012 85.8154 83.0658 85.8159 83.1694 85.917C83.2731 86.018 83.2787 86.1834 83.1822 86.2913L78.5112 91.122C78.4589 91.1754 78.3872 91.205 78.3127 91.2042Z" fill="#231F20"/>
<path d="M82.9956 90.9342L78.2954 86.1035L82.9956 90.9342Z" fill="white"/>
<path d="M82.9837 91.2033C82.9111 91.2026 82.8419 91.1731 82.791 91.1212L78.12 86.2905C78.0701 86.2409 78.042 86.1733 78.042 86.1027C78.042 86.0321 78.0701 85.9645 78.12 85.9149C78.2249 85.8096 78.3947 85.8096 78.4995 85.9149L83.1705 90.7455C83.2721 90.8522 83.2721 91.0204 83.1705 91.127C83.1208 91.1764 83.0535 91.2039 82.9837 91.2033Z" fill="#231F20"/>
<path d="M82.9956 90.9342L87.6958 86.1035L82.9956 90.9342Z" fill="white"/>
<path d="M82.9837 91.2033C82.9137 91.2046 82.8462 91.177 82.7969 91.127C82.6953 91.0204 82.6953 90.8522 82.7969 90.7455L87.497 85.9149C87.6019 85.8096 87.7717 85.8096 87.8766 85.9149C87.9265 85.9645 87.9546 86.0321 87.9546 86.1027C87.9546 86.1733 87.9265 86.2409 87.8766 86.2905L83.2056 91.1212C83.1478 91.1808 83.0662 91.211 82.9837 91.2033Z" fill="#231F20"/>
<path d="M87.6958 90.9342L82.9956 86.1035L87.6958 90.9342Z" fill="white"/>
<path d="M87.6956 91.2042C87.6231 91.2034 87.5538 91.1739 87.5029 91.122L82.8028 86.2913C82.7062 86.1834 82.7118 86.018 82.8155 85.917C82.9192 85.8159 83.0838 85.8154 83.1881 85.9157L87.8591 90.7463C87.9638 90.8518 87.9638 91.0225 87.8591 91.1279C87.8152 91.1719 87.7573 91.1989 87.6956 91.2042Z" fill="#231F20"/>
<path d="M87.6958 90.9342L92.3901 86.1035L87.6958 90.9342Z" fill="white"/>
<path d="M87.6955 91.204C87.6255 91.2053 87.558 91.1777 87.5087 91.1277C87.404 91.0223 87.404 90.8516 87.5087 90.7462L92.1797 85.9156C92.2859 85.8322 92.4373 85.8409 92.5334 85.936C92.6294 86.0311 92.6405 86.1831 92.5592 86.2912L87.859 91.1219C87.8155 91.1672 87.7578 91.1962 87.6955 91.204Z" fill="#231F20"/>
<path d="M92.3901 90.9342L87.6958 86.1035L92.3901 90.9342Z" fill="white"/>
<path d="M92.3902 91.204C92.3194 91.2031 92.2521 91.1734 92.2033 91.1219L87.5324 86.2912C87.451 86.1831 87.4621 86.0311 87.5582 85.936C87.6543 85.8409 87.8056 85.8322 87.9119 85.9156L92.612 90.7462C92.7167 90.8516 92.7167 91.0223 92.612 91.1277C92.5546 91.1876 92.472 91.216 92.3902 91.204Z" fill="#231F20"/>
<path d="M92.3901 90.9342L97.0903 86.1035L92.3901 90.9342Z" fill="white"/>
<path d="M92.3899 91.2042C92.32 91.2047 92.2527 91.1773 92.203 91.1279C92.0983 91.0225 92.0983 90.8518 92.203 90.7463L96.874 85.9157C96.9783 85.8154 97.1429 85.8159 97.2466 85.917C97.3503 86.018 97.3559 86.1834 97.2593 86.2913L92.5592 91.122C92.5141 91.1686 92.4542 91.1977 92.3899 91.2042Z" fill="#231F20"/>
<path d="M97.0903 90.9342L92.3901 86.1035L97.0903 90.9342Z" fill="white"/>
<path d="M97.0901 91.2033C97.0176 91.2026 96.9483 91.1731 96.8974 91.1212L92.2265 86.2905C92.1765 86.2409 92.1484 86.1733 92.1484 86.1027C92.1484 86.0321 92.1765 85.9645 92.2265 85.9149C92.3313 85.8096 92.5011 85.8096 92.606 85.9149L97.3061 90.7455C97.4077 90.8522 97.4077 91.0204 97.3061 91.127C97.2495 91.1843 97.1699 91.2124 97.0901 91.2033Z" fill="#231F20"/>
<path d="M103.811 90.9342L108.511 86.1035L103.811 90.9342Z" fill="white"/>
<path d="M103.811 91.2042C103.741 91.2047 103.674 91.1773 103.624 91.1279C103.519 91.0225 103.519 90.8518 103.624 90.7463L108.295 85.9157C108.399 85.8154 108.564 85.8159 108.667 85.917C108.771 86.018 108.777 86.1834 108.68 86.2913L104.003 91.122C103.953 91.1739 103.883 91.2034 103.811 91.2042Z" fill="#231F20"/>
<path d="M108.511 90.9342L103.811 86.1035L108.511 90.9342Z" fill="white"/>
<path d="M108.511 91.2033C108.438 91.2026 108.369 91.1731 108.318 91.1212L103.647 86.2905C103.597 86.2409 103.569 86.1733 103.569 86.1027C103.569 86.0321 103.597 85.9645 103.647 85.9149C103.752 85.8096 103.922 85.8096 104.026 85.9149L108.727 90.7455C108.828 90.8522 108.828 91.0204 108.727 91.127C108.67 91.1851 108.59 91.2134 108.511 91.2033Z" fill="#231F20"/>
<path d="M108.511 90.9342L113.211 86.1035L108.511 90.9342Z" fill="white"/>
<path d="M108.511 91.2033C108.441 91.2039 108.373 91.1764 108.324 91.127C108.222 91.0204 108.222 90.8522 108.324 90.7455L113.024 85.9149C113.129 85.8096 113.299 85.8096 113.403 85.9149C113.453 85.9645 113.481 86.0321 113.481 86.1027C113.481 86.1733 113.453 86.2409 113.403 86.2905L108.732 91.1212C108.675 91.1808 108.593 91.211 108.511 91.2033Z" fill="#231F20"/>
<path d="M113.211 90.9342L108.511 86.1035L113.211 90.9342Z" fill="white"/>
<path d="M113.211 91.2042C113.138 91.2034 113.069 91.1739 113.018 91.122L108.318 86.2913C108.221 86.1834 108.227 86.018 108.331 85.917C108.434 85.8159 108.599 85.8154 108.703 85.9157L113.374 90.7463C113.479 90.8518 113.479 91.0225 113.374 91.1279C113.33 91.1719 113.272 91.1989 113.211 91.2042Z" fill="#231F20"/>
<path d="M113.211 90.9342L117.905 86.1035L113.211 90.9342Z" fill="white"/>
<path d="M113.211 91.204C113.141 91.2053 113.073 91.1777 113.024 91.1277C112.922 91.0211 112.922 90.8529 113.024 90.7462L117.724 85.9156C117.83 85.8322 117.982 85.8409 118.078 85.936C118.174 86.0311 118.185 86.1831 118.104 86.2912L113.433 91.1219C113.377 91.1847 113.294 91.2156 113.211 91.204Z" fill="#231F20"/>
<path d="M117.905 90.9342L113.211 86.1035L117.905 90.9342Z" fill="white"/>
<path d="M117.905 91.2038C117.835 91.2016 117.768 91.1721 117.718 91.1216L113.018 86.291C112.917 86.1863 112.917 86.02 113.018 85.9153C113.067 85.8652 113.135 85.8369 113.205 85.8369C113.275 85.8369 113.342 85.8652 113.392 85.9153L118.063 90.746C118.167 90.8514 118.167 91.0221 118.063 91.1275C118.021 91.1716 117.965 91.1987 117.905 91.2038Z" fill="#231F20"/>
<path d="M117.905 90.9342L122.605 86.1035L117.905 90.9342Z" fill="white"/>
<path d="M117.905 91.2038C117.837 91.2048 117.771 91.1772 117.724 91.1275C117.672 91.0777 117.643 91.0088 117.643 90.9368C117.643 90.8647 117.672 90.7958 117.724 90.746L122.395 85.9153C122.444 85.8652 122.512 85.8369 122.582 85.8369C122.652 85.8369 122.719 85.8652 122.769 85.9153C122.87 86.02 122.87 86.1863 122.769 86.291L118.069 91.1216C118.025 91.167 117.967 91.196 117.905 91.2038Z" fill="#231F20"/>
<path d="M122.605 90.9342L117.905 86.1035L122.605 90.9342Z" fill="white"/>
<path d="M122.605 91.2038C122.534 91.2042 122.466 91.1744 122.419 91.1216L117.748 86.291C117.696 86.2422 117.667 86.1743 117.667 86.1032C117.667 86.0321 117.696 85.9641 117.748 85.9153C117.797 85.8652 117.864 85.8369 117.934 85.8369C118.005 85.8369 118.072 85.8652 118.121 85.9153L122.821 90.746C122.923 90.8527 122.923 91.0208 122.821 91.1275C122.765 91.1856 122.685 91.2138 122.605 91.2038Z" fill="#231F20"/>
<path d="M122.605 90.9342L127.306 86.1035L122.605 90.9342Z" fill="white"/>
<path d="M122.605 91.2042C122.535 91.2047 122.468 91.1773 122.418 91.1279C122.314 91.0225 122.314 90.8518 122.418 90.7463L127.089 85.9157C127.194 85.8154 127.358 85.8159 127.462 85.917C127.566 86.018 127.571 86.1834 127.475 86.2913L122.775 91.122C122.729 91.1686 122.669 91.1977 122.605 91.2042Z" fill="#231F20"/>
<path d="M127.306 90.9342L122.605 86.1035L127.306 90.9342Z" fill="white"/>
<path d="M127.305 91.2033C127.233 91.2026 127.164 91.1731 127.113 91.1212L122.442 86.2905C122.392 86.2409 122.364 86.1733 122.364 86.1027C122.364 86.0321 122.392 85.9645 122.442 85.9149C122.547 85.8096 122.716 85.8096 122.821 85.9149L127.521 90.7455C127.623 90.8522 127.623 91.0204 127.521 91.127C127.465 91.1843 127.385 91.2124 127.305 91.2033Z" fill="#231F20"/>
<path d="M127.306 90.9342L132.006 86.1035L127.306 90.9342Z" fill="white"/>
<path d="M127.306 91.2038C127.235 91.205 127.168 91.1775 127.119 91.1275C127.017 91.0208 127.017 90.8527 127.119 90.746L131.79 85.9153C131.839 85.8652 131.906 85.8369 131.976 85.8369C132.047 85.8369 132.114 85.8652 132.163 85.9153C132.215 85.9641 132.244 86.0321 132.244 86.1032C132.244 86.1743 132.215 86.2422 132.163 86.291L127.492 91.1216C127.443 91.1721 127.376 91.2016 127.306 91.2038Z" fill="#231F20"/>
<path d="M132.006 90.9342L127.306 86.1035L132.006 90.9342Z" fill="white"/>
<path d="M132.029 91.2042C131.957 91.2034 131.887 91.1739 131.837 91.122L127.166 86.2913C127.069 86.1834 127.075 86.018 127.178 85.917C127.282 85.8159 127.447 85.8154 127.551 85.9157L132.222 90.7463C132.274 90.7962 132.303 90.8651 132.303 90.9371C132.303 91.0091 132.274 91.078 132.222 91.1279C132.172 91.1807 132.101 91.2086 132.029 91.2042Z" fill="#231F20"/>
<path d="M132.006 90.9342L136.7 86.1035L132.006 90.9342Z" fill="white"/>
<path d="M132.029 91.2038C131.959 91.205 131.892 91.1775 131.842 91.1275C131.738 91.0221 131.738 90.8514 131.842 90.746L136.542 85.9153C136.592 85.8652 136.659 85.8369 136.729 85.8369C136.799 85.8369 136.867 85.8652 136.916 85.9153C137.017 86.02 137.017 86.1863 136.916 86.291L132.245 91.1216C132.189 91.1797 132.11 91.2097 132.029 91.2038Z" fill="#231F20"/>
<path d="M136.7 90.9342L132.006 86.1035L136.7 90.9342Z" fill="white"/>
<path d="M136.7 91.204C136.629 91.2045 136.561 91.1746 136.513 91.1219L131.813 86.2912C131.732 86.1831 131.743 86.0311 131.839 85.936C131.935 85.8409 132.086 85.8322 132.193 85.9156L136.864 90.7462C136.965 90.8529 136.965 91.0211 136.864 91.1277C136.82 91.1722 136.762 91.1993 136.7 91.204Z" fill="#231F20"/>
<path d="M142.113 86.1855H58.8877C58.817 86.1871 58.7487 86.16 58.6981 86.1103C58.6476 86.0605 58.6191 85.9925 58.6191 85.9214C58.6191 85.7723 58.7394 85.6514 58.8877 85.6514H142.113C142.261 85.6514 142.381 85.7723 142.381 85.9214C142.381 85.9925 142.353 86.0605 142.302 86.1103C142.252 86.16 142.183 86.1871 142.113 86.1855Z" fill="#231F20"/>
<rect x="62.2739" y="132.12" width="76.4462" height="2.67065" fill="white"/>
<path fill-rule="evenodd" clip-rule="evenodd" d="M62.274 135.044H138.726C138.869 135.044 138.986 134.929 138.989 134.785V132.109C138.989 131.963 138.871 131.845 138.726 131.845H62.274C62.1289 131.845 62.0112 131.963 62.0112 132.109V134.78C62.0112 134.925 62.1289 135.044 62.274 135.044ZM138.452 134.527H62.5484V132.391H138.452V134.527Z" fill="#231F20"/>
<path d="M138.726 134.797V150.645H129.571C129.571 150.645 123.318 136.44 100.5 136.44C77.6823 136.44 71.429 150.645 71.429 150.645H62.2739V134.797H138.726Z" fill="white"/>
<path fill-rule="evenodd" clip-rule="evenodd" d="M129.571 150.892H138.726C138.874 150.892 138.995 150.771 138.995 150.622V134.774C138.995 134.702 138.966 134.634 138.916 134.583C138.866 134.532 138.797 134.504 138.726 134.504H62.274C62.2027 134.504 62.1344 134.532 62.084 134.583C62.0337 134.634 62.0054 134.702 62.0054 134.774V150.622C62.0054 150.693 62.0337 150.762 62.084 150.813C62.1344 150.863 62.2027 150.892 62.274 150.892H71.429C71.5338 150.889 71.6284 150.828 71.6743 150.733C71.7327 150.592 78.1377 136.682 100.5 136.682C122.862 136.682 129.267 150.592 129.326 150.733C129.372 150.828 129.466 150.889 129.571 150.892ZM138.452 150.358H129.74V150.381C128.946 148.802 121.922 136.153 100.506 136.153C79.0894 136.153 72.0596 148.785 71.2656 150.363H62.5484V135.044H138.452V150.358Z" fill="#231F20"/>
<rect x="59.3486" y="90.9336" width="82.3025" height="2.44761" fill="#231F20"/>
<path fill-rule="evenodd" clip-rule="evenodd" d="M59.3256 93.6752H141.651C141.731 93.6753 141.807 93.6427 141.862 93.5851C141.917 93.5275 141.947 93.4498 141.943 93.37V90.9341C141.943 90.772 141.813 90.6406 141.651 90.6406H59.3256C59.1644 90.6406 59.0337 90.772 59.0337 90.9341V93.3817C59.0337 93.5438 59.1644 93.6752 59.3256 93.6752ZM141.371 93.0882H59.6409L59.6292 91.2276H141.371V93.0882Z" fill="#231F20"/>
<path d="M97.1895 84.9346L100.5 82.6396L103.811 84.9346V90.9333H97.1895V84.9346Z" fill="#E7816B"/>
<path fill-rule="evenodd" clip-rule="evenodd" d="M96.9209 90.9336C96.9209 91.0827 97.0411 91.2036 97.1895 91.2036H103.811C103.959 91.2036 104.079 91.0827 104.079 90.9336V84.9349C104.079 84.8457 104.036 84.7623 103.962 84.7119L100.652 82.4169C100.559 82.3584 100.441 82.3584 100.348 82.4169L97.0377 84.7119C96.9645 84.7623 96.9208 84.8457 96.9209 84.9349V90.9336ZM103.548 85.0758V90.6695H97.4522V85.0758L100.5 82.9627L103.548 85.0758Z" fill="#231F20"/>
<path d="M97.1894 89.6302C97.1187 89.6318 97.0504 89.6047 96.9998 89.5549C96.9493 89.5052 96.9208 89.4372 96.9208 89.3661V83.3322C96.9053 83.2273 96.9523 83.123 97.0409 83.0656C97.1295 83.0081 97.2434 83.0081 97.332 83.0656C97.4207 83.123 97.4676 83.2273 97.4521 83.3322V89.3661C97.4521 89.512 97.3345 89.6302 97.1894 89.6302Z" fill="#231F20"/>
<path d="M103.811 89.6302C103.665 89.6302 103.548 89.512 103.548 89.3661V83.3322C103.532 83.2273 103.579 83.123 103.668 83.0656C103.756 83.0081 103.87 83.0081 103.959 83.0656C104.048 83.123 104.095 83.2273 104.079 83.3322V89.3661C104.079 89.4372 104.051 89.5052 104 89.5549C103.95 89.6047 103.881 89.6318 103.811 89.6302Z" fill="#231F20"/>
<path d="M100.5 82.9101C100.353 82.907 100.234 82.7879 100.231 82.6401V80.9731C100.231 80.824 100.352 80.7031 100.5 80.7031C100.648 80.7031 100.769 80.824 100.769 80.9731V82.6401C100.765 82.7879 100.647 82.907 100.5 82.9101Z" fill="#231F20"/>
<path d="M10.3212 132.109V116.431C29.0051 113.302 47.689 90.3936 47.689 90.3936L46.6614 94.9073C46.6614 94.9073 27.633 116.525 10.3096 118.538" fill="#231F20"/>
<path fill-rule="evenodd" clip-rule="evenodd" d="M10.0293 132.12C10.0293 132.282 10.16 132.414 10.3212 132.414C10.4007 132.414 10.4768 132.381 10.5319 132.324C10.587 132.266 10.6163 132.188 10.6132 132.109V118.802C27.7848 116.619 46.7022 95.324 46.8891 95.1068C46.9247 95.0717 46.9491 95.0268 46.9591 94.9777L47.9809 90.464C48.0075 90.3328 47.9459 90.1996 47.8291 90.1353C47.7057 90.0777 47.559 90.1115 47.4729 90.2175C47.4711 90.2197 47.4676 90.224 47.4623 90.2303C46.923 90.8793 28.4585 113.103 10.2745 116.143C10.133 116.169 10.0299 116.292 10.0293 116.437V118.538V132.12ZM10.6132 118.204V116.677C26.9791 113.79 43.4326 95.776 47.1518 91.4912L46.4045 94.7664C45.3243 95.9755 27.1192 116.055 10.6132 118.204Z" fill="#231F20"/>
<path d="M15.9728 132.39C15.9021 132.39 15.8344 132.362 15.785 132.311C15.7355 132.26 15.7085 132.191 15.7101 132.12V117.247C15.7297 117.115 15.8427 117.017 15.9758 117.017C16.1088 117.017 16.2218 117.115 16.2414 117.247V132.109C16.2464 132.183 16.2201 132.255 16.169 132.309C16.1179 132.363 16.0467 132.392 15.9728 132.39Z" fill="#231F20"/>
<path d="M22.0163 132.39C21.9446 132.392 21.8753 132.364 21.8246 132.313C21.7739 132.262 21.7461 132.192 21.7477 132.12V114.681C21.7673 114.549 21.8803 114.451 22.0134 114.451C22.1464 114.451 22.2594 114.549 22.279 114.681V132.108C22.2839 132.181 22.2583 132.253 22.2085 132.306C22.1587 132.36 22.0891 132.39 22.0163 132.39Z" fill="#231F20"/>
<path d="M28.3279 132.39C28.2567 132.39 28.1884 132.362 28.138 132.311C28.0877 132.26 28.0594 132.192 28.0594 132.12V110.978C28.0594 110.829 28.1796 110.708 28.3279 110.708C28.4763 110.708 28.5965 110.829 28.5965 110.978V132.108C28.5997 132.182 28.5728 132.254 28.5221 132.307C28.4714 132.36 28.4012 132.39 28.3279 132.39Z" fill="#231F20"/>
<path d="M34.6393 132.391C34.5686 132.391 34.5009 132.362 34.4515 132.311C34.402 132.261 34.375 132.192 34.3766 132.121V106.283C34.3962 106.151 34.5092 106.053 34.6423 106.053C34.7753 106.053 34.8884 106.151 34.9079 106.283V132.109C34.9129 132.183 34.8866 132.256 34.8355 132.31C34.7844 132.363 34.7132 132.393 34.6393 132.391Z" fill="#231F20"/>
<path d="M54.7773 53.2865C54.6312 53.2866 54.5119 53.1692 54.5087 53.0224V47.6929C54.5087 47.5437 54.629 47.4229 54.7773 47.4229C54.9256 47.4229 55.0459 47.5437 55.0459 47.6929V53.0224C55.0427 53.1692 54.9234 53.2866 54.7773 53.2865Z" fill="#231F20"/>
<path d="M54.0298 54.4307H55.5245L62.0055 81.2194H47.5488L54.0298 54.4307Z" fill="#231F20"/>
<path fill-rule="evenodd" clip-rule="evenodd" d="M47.5547 81.5075H62.0055C62.0983 81.5098 62.1868 81.4686 62.2449 81.396C62.2992 81.3263 62.3186 81.2354 62.2975 81.1494L55.8223 54.3666C55.7947 54.2332 55.6777 54.1376 55.5421 54.1377H54.0299C53.8936 54.1392 53.7758 54.2335 53.7438 54.3666L47.2686 81.1494C47.2475 81.2354 47.2669 81.3263 47.3212 81.396C47.3781 81.4669 47.4641 81.508 47.5547 81.5075ZM61.6319 80.9205H47.9226L54.2576 54.7247H55.2969L61.6319 80.9205Z" fill="#231F20"/>
<rect x="54.0356" y="52.4238" width="1.48887" height="2.00739" fill="#231F20"/>
<path fill-rule="evenodd" clip-rule="evenodd" d="M54.059 54.7242H55.5421C55.7033 54.7242 55.834 54.5928 55.834 54.4308V52.4234C55.834 52.2613 55.7033 52.1299 55.5421 52.1299H54.059C53.8978 52.1299 53.7671 52.2613 53.7671 52.4234V54.4308C53.7671 54.5928 53.8978 54.7242 54.059 54.7242ZM55.2735 54.1373H54.3743V52.7168H55.2735V54.1373Z" fill="#231F20"/>
<path d="M57.9356 80.3386V73.9936L54.7769 68.6523L51.6182 73.9936V80.3386H48.582V131.116H60.9718V80.3386H57.9356Z" fill="#E7816B"/>
<path fill-rule="evenodd" clip-rule="evenodd" d="M48.5879 131.386H60.9718C61.1156 131.383 61.2315 131.267 61.2346 131.122V80.3446C61.2346 80.1987 61.1169 80.0805 60.9718 80.0805H58.1984V73.9996C58.1987 73.9523 58.1866 73.9057 58.1634 73.8646L55.0047 68.5233C54.9537 68.4471 54.8683 68.4014 54.7769 68.4014C54.6856 68.4014 54.6002 68.4471 54.5492 68.5233L51.3905 73.8646C51.3673 73.9057 51.3552 73.9523 51.3555 73.9996V80.0746H48.5879C48.5172 80.073 48.4489 80.1001 48.3983 80.1498C48.3478 80.1995 48.3193 80.2676 48.3193 80.3387V131.116C48.3193 131.265 48.4396 131.386 48.5879 131.386ZM60.7032 130.846H48.8507L48.7923 80.6087H51.5598C51.7082 80.6087 51.8284 80.4878 51.8284 80.3387V74.0641L54.7478 69.1748L57.6671 74.0641V80.3387C57.6702 80.4865 57.7887 80.6056 57.9357 80.6087H60.7032V130.846Z" fill="#231F20"/>
<path d="M60.9718 85.2578H48.5879C48.4835 85.2734 48.3798 85.2262 48.3227 85.1371C48.2655 85.048 48.2655 84.9335 48.3227 84.8444C48.3798 84.7553 48.4835 84.7081 48.5879 84.7237H60.9718C61.1034 84.7434 61.2008 84.857 61.2008 84.9907C61.2008 85.1245 61.1034 85.2381 60.9718 85.2578Z" fill="#231F20"/>
<path d="M52.5873 94.9364H50.6313V88.5738C50.6313 88.0279 51.6123 87.1475 51.6123 87.1475C51.6123 87.1475 52.5873 88.0279 52.5873 88.5738V94.9364Z" fill="#231F20"/>
<path d="M55.7582 94.9364H53.7905V88.5738C53.7905 88.0279 54.7714 87.1475 54.7714 87.1475C54.7714 87.1475 55.7523 88.0279 55.7523 88.5738L55.7582 94.9364Z" fill="#231F20"/>
<path d="M58.9228 94.9364H56.9668V88.5738C56.9668 88.0279 57.9419 87.1475 57.9419 87.1475C57.9419 87.1475 58.9228 88.0279 58.9228 88.5738V94.9364Z" fill="#231F20"/>
<path d="M52.5873 106.87H50.6313V100.478C50.6313 99.9381 51.6123 99.0518 51.6123 99.0518C51.6123 99.0518 52.5873 99.9381 52.5873 100.478V106.87Z" fill="#231F20"/>
<path d="M55.7582 106.87H53.7905V100.478C53.7905 99.9381 54.7714 99.0518 54.7714 99.0518C54.7714 99.0518 55.7523 99.9381 55.7523 100.478L55.7582 106.87Z" fill="#231F20"/>
<path d="M58.9228 106.87H56.9668V100.478C56.9668 99.9381 57.9419 99.0518 57.9419 99.0518C57.9419 99.0518 58.9228 99.9381 58.9228 100.478V106.87Z" fill="#231F20"/>
<path d="M52.5873 118.756H50.6313V112.387C50.6313 111.841 51.6123 110.961 51.6123 110.961C51.6123 110.961 52.5873 111.841 52.5873 112.387V118.756Z" fill="#231F20"/>
<path d="M55.7582 118.756H53.7905V112.387C53.7905 111.841 54.7714 110.961 54.7714 110.961C54.7714 110.961 55.7523 111.841 55.7523 112.387L55.7582 118.756Z" fill="#231F20"/>
<path d="M58.9228 118.756H56.9668V112.387C56.9668 111.841 57.9419 110.961 57.9419 110.961C57.9419 110.961 58.9228 111.841 58.9228 112.387V118.756Z" fill="#231F20"/>
<path d="M60.5282 122.271H49.0259C48.8798 122.272 48.7605 122.154 48.7573 122.007C48.7604 121.86 48.8789 121.74 49.0259 121.737H60.5282C60.6752 121.74 60.7936 121.86 60.7967 122.007C60.7936 122.154 60.6742 122.272 60.5282 122.271Z" fill="#231F20"/>
<path d="M46.5271 60.6113L49.4815 71.922H43.5728L46.5271 60.6113Z" fill="#231F20"/>
<path fill-rule="evenodd" clip-rule="evenodd" d="M43.5725 72.2387H49.4813C49.5669 72.2334 49.6459 72.1905 49.6973 72.1213C49.7543 72.0507 49.7739 71.9567 49.7498 71.8689L46.7954 60.5583C46.7582 60.4273 46.6391 60.3369 46.5035 60.3369C46.3679 60.3369 46.2488 60.4273 46.2116 60.5583L43.2922 71.8689C43.2684 71.9558 43.2856 72.0489 43.3389 72.1213C43.3952 72.1938 43.481 72.237 43.5725 72.2387ZM49.1193 71.6518H43.952L46.5444 61.785L49.1193 71.6518Z" fill="#231F20"/>
<path d="M44.6353 71.9219L44.7579 90.7749L45.8847 93.7919V131.116H49.5106V93.4104L48.6289 91.4323V71.9219H44.6353Z" fill="#E7816B"/>
<path fill-rule="evenodd" clip-rule="evenodd" d="M45.8848 131.387H49.5107C49.6554 131.381 49.7705 131.263 49.7734 131.117V93.4108C49.7794 93.3759 49.7794 93.3401 49.7734 93.3052L48.9151 91.3741V71.9223C48.9151 71.7732 48.7949 71.6523 48.6465 71.6523H44.6529C44.5831 71.6524 44.5161 71.6798 44.466 71.7286C44.4144 71.7798 44.385 71.8495 44.3843 71.9223L44.5127 90.7754C44.5071 90.8064 44.5071 90.8382 44.5127 90.8693L45.6162 93.8393V131.117C45.6193 131.265 45.7378 131.384 45.8848 131.387ZM49.2421 130.847H46.1534L46.1592 93.7865C46.1643 93.7554 46.1643 93.7237 46.1592 93.6926L45.0499 90.7226L44.9273 72.1865H48.3838V91.4328C48.3784 91.4698 48.3784 91.5073 48.3838 91.5443L49.2421 93.4695V130.847Z" fill="#231F20"/>
<path d="M48.6287 84.4424H44.7168C44.6125 84.458 44.5087 84.4107 44.4516 84.3216C44.3944 84.2326 44.3944 84.1181 44.4516 84.029C44.5087 83.9399 44.6125 83.8927 44.7168 83.9082H48.6287C48.733 83.8927 48.8367 83.9399 48.8939 84.029C48.9511 84.1181 48.9511 84.2326 48.8939 84.3216C48.8367 84.4107 48.733 84.458 48.6287 84.4424Z" fill="#231F20"/>
<path d="M49.5106 94.0566H45.8847C45.7804 94.0722 45.6767 94.025 45.6195 93.9359C45.5624 93.8468 45.5624 93.7323 45.6195 93.6432C45.6767 93.5541 45.7804 93.5069 45.8847 93.5225H49.5106C49.6149 93.5069 49.7186 93.5541 49.7758 93.6432C49.8329 93.7323 49.8329 93.8468 49.7758 93.9359C49.7186 94.025 49.6149 94.0722 49.5106 94.0566Z" fill="#231F20"/>
<path d="M63.0271 60.6113L60.0728 71.922H65.9815L63.0271 60.6113Z" fill="#231F20"/>
<path fill-rule="evenodd" clip-rule="evenodd" d="M59.8449 72.1213C59.8987 72.1936 59.9827 72.2369 60.0726 72.2387H65.9813C66.0789 72.2425 66.1724 72.1988 66.2324 72.1213C66.2869 72.0495 66.3062 71.9567 66.285 71.8689L63.3306 60.5583C63.2933 60.4273 63.1742 60.3369 63.0386 60.3369C62.9031 60.3369 62.7839 60.4273 62.7467 60.5583L59.7923 71.8689C59.7683 71.9567 59.7878 72.0507 59.8449 72.1213ZM63.027 61.785L65.6018 71.6518H60.4521L63.027 61.785Z" fill="#231F20"/>
<path d="M64.9188 71.9219L64.7962 90.7749L63.6693 93.7919V131.116H60.0435V93.4104L60.9251 91.4323V71.9219H64.9188Z" fill="#E7816B"/>
<path fill-rule="evenodd" clip-rule="evenodd" d="M60.0436 131.386H63.6694C63.8119 131.377 63.9236 131.26 63.9263 131.116V93.8388L65.0357 90.8688C65.0385 90.8376 65.0385 90.8062 65.0357 90.7749L65.1641 71.9219C65.1675 71.8493 65.1403 71.7786 65.0892 71.7272C65.038 71.6759 64.9678 71.6485 64.8956 71.6519H60.9019C60.7535 71.6519 60.6333 71.7728 60.6333 71.9219V91.3736L59.775 93.3047C59.769 93.3397 59.769 93.3754 59.775 93.4104V131.116C59.7781 131.264 59.8966 131.383 60.0436 131.386ZM63.4008 130.846H60.3122L60.318 93.4691L61.1763 91.5438C61.1846 91.5071 61.1846 91.469 61.1763 91.4323V72.186H64.6328L64.5102 90.7221L63.4008 93.6921C63.3958 93.7232 63.3958 93.7549 63.4008 93.786V130.846Z" fill="#231F20"/>
<path d="M64.8372 84.4424H60.9253C60.8209 84.458 60.7172 84.4107 60.6601 84.3216C60.6029 84.2326 60.6029 84.1181 60.6601 84.029C60.7172 83.9399 60.8209 83.8927 60.9253 83.9082H64.8372C64.9415 83.8927 65.0452 83.9399 65.1024 84.029C65.1596 84.1181 65.1596 84.2326 65.1024 84.3216C65.0452 84.4107 64.9415 84.458 64.8372 84.4424Z" fill="#231F20"/>
<path d="M63.6693 94.0566H60.0434C59.9391 94.0722 59.8354 94.025 59.7782 93.9359C59.7211 93.8468 59.7211 93.7323 59.7782 93.6432C59.8354 93.5541 59.9391 93.5069 60.0434 93.5225H63.6693C63.7736 93.5069 63.8773 93.5541 63.9345 93.6432C63.9916 93.7323 63.9916 93.8468 63.9345 93.9359C63.8773 94.025 63.7736 94.0722 63.6693 94.0566Z" fill="#231F20"/>
<path d="M46.5268 61.3454C46.3785 61.3454 46.2582 61.2245 46.2582 61.0754V58.4399C46.2582 58.2908 46.3785 58.1699 46.5268 58.1699C46.6751 58.1699 46.7954 58.2908 46.7954 58.4399V61.0871C46.7891 61.2316 46.6707 61.3455 46.5268 61.3454Z" fill="#231F20"/>
<path d="M63.0273 61.345C62.9566 61.345 62.8889 61.3164 62.8394 61.2656C62.79 61.2148 62.763 61.1461 62.7646 61.075V58.4396C62.749 58.3347 62.796 58.2304 62.8847 58.173C62.9733 58.1155 63.0872 58.1155 63.1758 58.173C63.2644 58.2304 63.3114 58.3347 63.2959 58.4396V61.0868C63.2943 61.1568 63.2652 61.2234 63.2148 61.2718C63.1644 61.3203 63.097 61.3466 63.0273 61.345Z" fill="#231F20"/>
<rect x="41.8267" y="131.117" width="25.8772" height="19.5339" fill="#E7816B"/>
<path fill-rule="evenodd" clip-rule="evenodd" d="M41.8267 150.891H67.7097C67.8473 150.892 67.9633 150.788 67.9783 150.651V131.117C67.9752 130.969 67.8567 130.85 67.7097 130.847H41.8267C41.6807 130.85 41.5639 130.97 41.564 131.117V150.627C41.564 150.773 41.6816 150.891 41.8267 150.891ZM67.4586 150.381H42.1128V131.387H67.4586V150.381Z" fill="#231F20"/>
<path d="M55.7582 81.2137H53.7905V74.8511C53.7905 74.3052 54.7714 73.4248 54.7714 73.4248C54.7714 73.4248 55.7523 74.3052 55.7523 74.8511L55.7582 81.2137Z" fill="#231F20"/>
<path fill-rule="evenodd" clip-rule="evenodd" d="M53.7905 81.5074H55.7581C55.9171 81.5042 56.0442 81.3737 56.0442 81.2139V74.8513C56.0442 74.2056 55.1451 73.3663 54.9641 73.2078C54.8549 73.1078 54.6879 73.1078 54.5787 73.2078C54.3977 73.3663 53.4985 74.2056 53.4985 74.8513V81.2139C53.4985 81.376 53.6292 81.5074 53.7905 81.5074ZM55.4662 80.9204H54.0882V74.8513C54.2211 74.4541 54.4593 74.101 54.7772 73.83C55.0951 74.101 55.3333 74.4541 55.4662 74.8513V80.9204Z" fill="#231F20"/>
<rect x="10.3213" y="132.12" width="31.5057" height="2.67065" fill="white"/>
<path fill-rule="evenodd" clip-rule="evenodd" d="M10.2979 135.044H41.8269C41.8966 135.045 41.9641 135.019 42.0144 134.971C42.0648 134.922 42.094 134.856 42.0955 134.785V132.109C42.0955 132.038 42.067 131.97 42.0165 131.92C41.966 131.87 41.8976 131.843 41.8269 131.845H10.2979C10.2282 131.845 10.1614 131.873 10.1121 131.922C10.0628 131.972 10.0352 132.039 10.0352 132.109V134.78C10.0352 134.925 10.1528 135.044 10.2979 135.044ZM41.5642 134.527H10.584V132.391H41.5642V134.527Z" fill="#231F20"/>
<rect x="10.3213" y="134.797" width="31.5057" height="15.8537" fill="white"/>
<path fill-rule="evenodd" clip-rule="evenodd" d="M10.2975 150.891H41.8266C41.8973 150.892 41.9656 150.865 42.0161 150.816C42.0667 150.766 42.0952 150.698 42.0951 150.627V134.779C42.0968 134.707 42.069 134.637 42.0183 134.586C41.9675 134.535 41.8983 134.507 41.8266 134.509H10.2975C10.2268 134.509 10.1591 134.538 10.1097 134.588C10.0602 134.639 10.0332 134.708 10.0348 134.779V150.627C10.0348 150.773 10.1524 150.891 10.2975 150.891ZM41.5638 150.38H10.5836V135.043H41.5638V150.38Z" fill="#231F20"/>
<path d="M40.9452 132.39C40.8735 132.392 40.8043 132.364 40.7536 132.313C40.7028 132.262 40.6751 132.192 40.6767 132.12V100.724C40.6612 100.619 40.7081 100.515 40.7968 100.457C40.8854 100.4 40.9993 100.4 41.0879 100.457C41.1765 100.515 41.2235 100.619 41.208 100.724V132.108C41.2128 132.181 41.1873 132.253 41.1375 132.307C41.0877 132.36 41.0181 132.39 40.9452 132.39Z" fill="#231F20"/>
<path d="M190.679 132.109V116.431C171.995 113.302 153.311 90.3936 153.311 90.3936L154.339 94.9073C154.339 94.9073 173.367 116.525 190.69 118.538" fill="#231F20"/>
<path fill-rule="evenodd" clip-rule="evenodd" d="M190.387 132.12C190.387 132.282 190.518 132.414 190.679 132.414C190.764 132.422 190.847 132.394 190.909 132.335C190.971 132.277 191.004 132.194 191 132.109V118.509V116.408C191 116.263 190.896 116.14 190.755 116.114C172.571 113.074 154.106 90.8499 153.567 90.201C153.562 90.1947 153.558 90.1904 153.557 90.1882C153.47 90.0822 153.324 90.0484 153.2 90.106C153.084 90.1703 153.022 90.3035 153.049 90.4347L154.041 94.9719C154.051 95.021 154.076 95.0659 154.111 95.101C154.298 95.3182 173.216 116.613 190.387 118.796V132.12ZM190.387 118.204C173.864 116.055 155.676 95.9756 154.596 94.7665L153.849 91.4912C157.568 95.776 174.039 113.79 190.387 116.678V118.204Z" fill="#231F20"/>
<path d="M185.027 132.39C184.955 132.392 184.886 132.364 184.835 132.313C184.785 132.262 184.757 132.192 184.758 132.12V117.247C184.778 117.115 184.891 117.017 185.024 117.017C185.157 117.017 185.27 117.115 185.29 117.247V132.109C185.295 132.182 185.269 132.253 185.219 132.307C185.169 132.36 185.1 132.391 185.027 132.39Z" fill="#231F20"/>
<path d="M178.984 132.39C178.914 132.385 178.849 132.353 178.803 132.3C178.757 132.247 178.734 132.178 178.739 132.108V114.681C178.758 114.549 178.871 114.451 179.004 114.451C179.137 114.451 179.25 114.549 179.27 114.681V132.108C179.275 132.186 179.247 132.261 179.192 132.316C179.137 132.37 179.061 132.397 178.984 132.39Z" fill="#231F20"/>
<path d="M172.672 132.39C172.601 132.39 172.533 132.362 172.482 132.311C172.432 132.26 172.404 132.192 172.404 132.12V110.978C172.404 110.829 172.524 110.708 172.672 110.708C172.821 110.708 172.941 110.829 172.941 110.978V132.108C172.944 132.182 172.917 132.254 172.866 132.307C172.816 132.36 172.745 132.39 172.672 132.39Z" fill="#231F20"/>
<path d="M166.361 132.391C166.289 132.392 166.22 132.365 166.169 132.314C166.118 132.263 166.09 132.193 166.092 132.121V106.283C166.112 106.151 166.225 106.053 166.358 106.053C166.491 106.053 166.604 106.151 166.623 106.283V132.109C166.628 132.182 166.603 132.254 166.553 132.307C166.503 132.361 166.433 132.391 166.361 132.391Z" fill="#231F20"/>
<path d="M146.223 53.2865C146.077 53.2866 145.958 53.1692 145.955 53.0224V47.6929C145.955 47.5437 146.075 47.4229 146.223 47.4229C146.371 47.4229 146.492 47.5437 146.492 47.6929V53.0224C146.488 53.1692 146.369 53.2866 146.223 53.2865Z" fill="#231F20"/>
<path d="M146.97 54.4307H145.47L138.995 81.2194H153.451L146.97 54.4307Z" fill="#231F20"/>
<path fill-rule="evenodd" clip-rule="evenodd" d="M138.995 81.5075H153.446C153.536 81.508 153.622 81.4669 153.679 81.396C153.733 81.3263 153.753 81.2354 153.732 81.1494L147.256 54.3666C147.224 54.2335 147.107 54.1392 146.97 54.1377H145.47C145.334 54.1376 145.217 54.2332 145.19 54.3666L138.714 81.1494C138.693 81.2354 138.713 81.3263 138.767 81.396C138.823 81.4653 138.906 81.5062 138.995 81.5075ZM153.078 80.9205H139.368L145.703 54.7247H146.743L153.078 80.9205Z" fill="#231F20"/>
<rect x="146.964" y="54.4365" width="1.48887" height="2.00739" transform="rotate(-180 146.964 54.4365)" fill="#231F20"/>
<path fill-rule="evenodd" clip-rule="evenodd" d="M145.458 54.7242H146.964C147.116 54.712 147.233 54.5841 147.233 54.4308V52.4234C147.233 52.2613 147.102 52.1299 146.941 52.1299H145.458C145.297 52.1299 145.166 52.2613 145.166 52.4234V54.4308C145.166 54.5928 145.297 54.7242 145.458 54.7242ZM146.696 54.1373H145.797V52.7168H146.696V54.1373Z" fill="#231F20"/>
<path d="M143.064 80.3386V73.9936L146.223 68.6523L149.381 73.9936V80.3386H152.418V131.116H140.028V80.3386H143.064Z" fill="#E7816B"/>
<path fill-rule="evenodd" clip-rule="evenodd" d="M140.028 131.386H152.412C152.558 131.386 152.677 131.269 152.68 131.122V80.3446C152.68 80.2735 152.652 80.2054 152.601 80.1557C152.551 80.106 152.482 80.0789 152.412 80.0805H149.644V73.9996C149.645 73.9523 149.632 73.9057 149.609 73.8646L146.45 68.5233C146.399 68.4471 146.314 68.4014 146.223 68.4014C146.131 68.4014 146.046 68.4471 145.995 68.5233L142.836 73.8646C142.813 73.9057 142.801 73.9523 142.801 73.9996V80.0746H140.028C139.883 80.0746 139.765 80.1928 139.765 80.3387V131.116C139.765 131.263 139.882 131.383 140.028 131.386ZM152.149 130.846H140.296V80.6087H143.064C143.211 80.6056 143.329 80.4865 143.333 80.3387V74.0641L146.223 69.1748L149.113 74.0641V80.3387C149.113 80.4878 149.233 80.6087 149.381 80.6087H152.149V130.846Z" fill="#231F20"/>
<path d="M152.412 85.2578H140.028C139.896 85.2381 139.799 85.1245 139.799 84.9907C139.799 84.857 139.896 84.7434 140.028 84.7237H152.412C152.516 84.7081 152.62 84.7553 152.677 84.8444C152.734 84.9335 152.734 85.048 152.677 85.1371C152.62 85.2262 152.516 85.2734 152.412 85.2578Z" fill="#231F20"/>
<path d="M148.413 94.9364H150.369V88.5738C150.369 88.0279 149.388 87.1475 149.388 87.1475C149.388 87.1475 148.413 88.0279 148.413 88.5738V94.9364Z" fill="#231F20"/>
<path d="M145.242 94.9364H147.21V88.5738C147.21 88.0279 146.229 87.1475 146.229 87.1475C146.229 87.1475 145.248 88.0279 145.248 88.5738L145.242 94.9364Z" fill="#231F20"/>
<path d="M142.078 94.9364H144.034V88.5738C144.034 88.0279 143.059 87.1475 143.059 87.1475C143.059 87.1475 142.078 88.0279 142.078 88.5738V94.9364Z" fill="#231F20"/>
<path d="M148.413 106.87H150.369V100.478C150.369 99.9381 149.388 99.0518 149.388 99.0518C149.388 99.0518 148.413 99.9381 148.413 100.478V106.87Z" fill="#231F20"/>
<path d="M145.242 106.87H147.21V100.478C147.21 99.9381 146.229 99.0518 146.229 99.0518C146.229 99.0518 145.248 99.9381 145.248 100.478L145.242 106.87Z" fill="#231F20"/>
<path d="M142.078 106.87H144.034V100.478C144.034 99.9381 143.059 99.0518 143.059 99.0518C143.059 99.0518 142.078 99.9381 142.078 100.478V106.87Z" fill="#231F20"/>
<path d="M148.413 118.756H150.369V112.387C150.369 111.841 149.388 110.961 149.388 110.961C149.388 110.961 148.413 111.841 148.413 112.387V118.756Z" fill="#231F20"/>
<path d="M145.242 118.756H147.21V112.387C147.21 111.841 146.229 110.961 146.229 110.961C146.229 110.961 145.248 111.841 145.248 112.387L145.242 118.756Z" fill="#231F20"/>
<path d="M142.078 118.756H144.034V112.387C144.034 111.841 143.059 110.961 143.059 110.961C143.059 110.961 142.078 111.841 142.078 112.387V118.756Z" fill="#231F20"/>
<path d="M151.49 97.4785H140.98C140.833 97.4754 140.715 97.3563 140.711 97.2085C140.715 97.0617 140.834 96.9443 140.98 96.9444H151.49C151.636 96.9443 151.755 97.0617 151.758 97.2085C151.755 97.3563 151.637 97.4754 151.49 97.4785Z" fill="#231F20"/>
<path d="M151.49 109.61H140.98C140.876 109.626 140.772 109.579 140.715 109.49C140.658 109.401 140.658 109.286 140.715 109.197C140.772 109.108 140.876 109.061 140.98 109.076H151.49C151.594 109.061 151.698 109.108 151.755 109.197C151.812 109.286 151.812 109.401 151.755 109.49C151.698 109.579 151.594 109.626 151.49 109.61Z" fill="#231F20"/>
<path d="M151.974 122.271H140.472C140.326 122.272 140.206 122.154 140.203 122.007C140.206 121.86 140.325 121.74 140.472 121.737H151.974C152.121 121.74 152.239 121.86 152.243 122.007C152.239 122.154 152.12 122.272 151.974 122.271Z" fill="#231F20"/>
<path d="M154.473 60.6113L151.519 71.922H157.427L154.473 60.6113Z" fill="#231F20"/>
<path fill-rule="evenodd" clip-rule="evenodd" d="M151.519 72.2388H157.428C157.527 72.2352 157.619 72.1825 157.673 72.0979C157.726 72.0254 157.743 71.9324 157.72 71.8455L154.8 60.5349C154.763 60.4038 154.644 60.3135 154.508 60.3135C154.373 60.3135 154.254 60.4038 154.216 60.5349L151.239 71.869C151.215 71.9567 151.234 72.0507 151.291 72.1214C151.345 72.1937 151.429 72.237 151.519 72.2388ZM157.031 71.6518H151.881L154.456 61.7851L157.031 71.6518Z" fill="#231F20"/>
<path d="M156.365 71.9219L156.242 90.7749L155.115 93.7919V131.116H151.489V93.4104L152.371 91.4323V71.9219H156.365Z" fill="#E7816B"/>
<path fill-rule="evenodd" clip-rule="evenodd" d="M151.489 131.387H155.115C155.262 131.384 155.381 131.265 155.384 131.117V93.8393L156.481 90.8693C156.487 90.8382 156.487 90.8064 156.481 90.7754L156.61 71.9223C156.609 71.8495 156.58 71.7798 156.528 71.7286C156.478 71.6798 156.411 71.6524 156.341 71.6523H152.348C152.199 71.6523 152.079 71.7732 152.079 71.9223V91.3741L151.221 93.3052C151.215 93.3401 151.215 93.3759 151.221 93.4108V131.117C151.224 131.265 151.342 131.384 151.489 131.387ZM154.847 130.847H151.758L151.781 93.4695L152.64 91.5443C152.645 91.5073 152.645 91.4698 152.64 91.4328V72.1865H156.079L155.956 90.7226L154.847 93.6926C154.842 93.7237 154.842 93.7554 154.847 93.7865V130.847Z" fill="#231F20"/>
<path d="M156.283 84.4424H152.371C152.267 84.458 152.163 84.4107 152.106 84.3216C152.049 84.2326 152.049 84.1181 152.106 84.029C152.163 83.9399 152.267 83.8927 152.371 83.9082H156.283C156.387 83.8927 156.491 83.9399 156.548 84.029C156.605 84.1181 156.605 84.2326 156.548 84.3216C156.491 84.4107 156.387 84.458 156.283 84.4424Z" fill="#231F20"/>
<path d="M155.115 94.0566H151.489C151.385 94.0722 151.281 94.025 151.224 93.9359C151.167 93.8468 151.167 93.7323 151.224 93.6432C151.281 93.5541 151.385 93.5069 151.489 93.5225H155.115C155.219 93.5069 155.323 93.5541 155.38 93.6432C155.437 93.7323 155.437 93.8468 155.38 93.9359C155.323 94.025 155.219 94.0722 155.115 94.0566Z" fill="#231F20"/>
<path d="M137.973 60.6113L140.927 71.922H135.019L137.973 60.6113Z" fill="#231F20"/>
<path fill-rule="evenodd" clip-rule="evenodd" d="M134.785 72.1213C134.841 72.1938 134.927 72.237 135.019 72.2387H140.927C141.023 72.2425 141.115 72.1986 141.173 72.1213C141.23 72.0507 141.249 71.9567 141.225 71.8689L138.271 60.5583C138.234 60.4273 138.114 60.3369 137.979 60.3369C137.843 60.3369 137.724 60.4273 137.687 60.5583L134.733 71.8689C134.711 71.9567 134.731 72.0495 134.785 72.1213ZM137.973 61.785L140.548 71.6518H135.398L137.973 61.785Z" fill="#231F20"/>
<path d="M136.081 71.9219L136.204 90.7749L137.331 93.7919V131.116H140.956V93.4104L140.075 91.4323V71.9219H136.081Z" fill="#E7816B"/>
<path fill-rule="evenodd" clip-rule="evenodd" d="M137.33 131.386H140.956C141.099 131.377 141.21 131.26 141.213 131.116V93.4104C141.219 93.3754 141.219 93.3397 141.213 93.3047L140.355 91.3736V71.9219C140.355 71.7728 140.235 71.6519 140.086 71.6519H136.093C136.02 71.6485 135.95 71.6759 135.899 71.7272C135.848 71.7786 135.821 71.8493 135.824 71.9219L135.952 90.7749C135.95 90.8062 135.95 90.8376 135.952 90.8688L137.062 93.8388V131.116C137.065 131.264 137.183 131.383 137.33 131.386ZM140.688 130.846H137.599L137.581 93.786C137.586 93.7549 137.586 93.7232 137.581 93.6921L136.472 90.7221L136.349 72.186H139.829V91.4323C139.821 91.469 139.821 91.5071 139.829 91.5438L140.688 93.4691V130.846Z" fill="#231F20"/>
<path d="M140.075 84.4424H136.163C136.059 84.458 135.955 84.4107 135.898 84.3216C135.841 84.2326 135.841 84.1181 135.898 84.029C135.955 83.9399 136.059 83.8927 136.163 83.9082H140.075C140.179 83.8927 140.283 83.9399 140.34 84.029C140.397 84.1181 140.397 84.2326 140.34 84.3216C140.283 84.4107 140.179 84.458 140.075 84.4424Z" fill="#231F20"/>
<path d="M140.956 94.0566H137.331C137.226 94.0722 137.122 94.025 137.065 93.9359C137.008 93.8468 137.008 93.7323 137.065 93.6432C137.122 93.5541 137.226 93.5069 137.331 93.5225H140.956C141.061 93.5069 141.164 93.5541 141.222 93.6432C141.279 93.7323 141.279 93.8468 141.222 93.9359C141.164 94.025 141.061 94.0722 140.956 94.0566Z" fill="#231F20"/>
<path d="M154.473 61.3454C154.334 61.3394 154.222 61.2272 154.216 61.0871V58.4399C154.216 58.2908 154.336 58.1699 154.485 58.1699C154.633 58.1699 154.753 58.2908 154.753 58.4399V61.0871C154.75 61.1587 154.719 61.2262 154.667 61.2747C154.614 61.3231 154.544 61.3485 154.473 61.3454Z" fill="#231F20"/>
<path d="M137.973 61.345C137.901 61.3466 137.832 61.3187 137.781 61.2677C137.731 61.2167 137.703 61.1471 137.704 61.075V58.4396C137.689 58.3347 137.736 58.2304 137.825 58.173C137.913 58.1155 138.027 58.1155 138.116 58.173C138.204 58.2304 138.251 58.3347 138.236 58.4396V61.0868C138.233 61.2303 138.116 61.3451 137.973 61.345Z" fill="#231F20"/>
<rect x="133.29" y="131.117" width="25.8772" height="19.5339" fill="#E7816B"/>
<path fill-rule="evenodd" clip-rule="evenodd" d="M133.29 150.891H159.173C159.31 150.892 159.424 150.787 159.436 150.651V131.117C159.436 130.97 159.319 130.85 159.173 130.847H133.29C133.143 130.85 133.025 130.969 133.021 131.117V150.627C133.025 150.774 133.144 150.891 133.29 150.891ZM158.887 150.357H133.559V131.387H158.887V150.357Z" fill="#231F20"/>
<path d="M145.242 81.2137H147.21V74.8511C147.21 74.3052 146.229 73.4248 146.229 73.4248C146.229 73.4248 145.248 74.3052 145.248 74.8511L145.242 81.2137Z" fill="#231F20"/>
<rect x="190.673" y="134.797" width="31.5057" height="2.67065" transform="rotate(-180 190.673 134.797)" fill="white"/>
<path fill-rule="evenodd" clip-rule="evenodd" d="M159.15 135.044H190.679C190.822 135.044 190.939 134.929 190.942 134.785V132.109C190.942 131.963 190.824 131.845 190.679 131.845H159.15C159.079 131.843 159.011 131.87 158.96 131.92C158.91 131.97 158.881 132.038 158.881 132.109V134.78C158.881 134.851 158.91 134.919 158.96 134.968C159.011 135.018 159.079 135.045 159.15 135.044ZM190.416 134.51H159.436V132.373H190.416V134.51Z" fill="#231F20"/>
<rect x="190.673" y="150.645" width="31.5057" height="15.8537" transform="rotate(-180 190.673 150.645)" fill="white"/>
<path fill-rule="evenodd" clip-rule="evenodd" d="M159.15 150.891H190.679C190.824 150.891 190.942 150.773 190.942 150.627V134.779C190.943 134.708 190.916 134.639 190.867 134.588C190.818 134.538 190.75 134.509 190.679 134.509H159.15C159.078 134.507 159.009 134.535 158.958 134.586C158.908 134.637 158.88 134.707 158.881 134.779V150.627C158.881 150.698 158.91 150.766 158.96 150.816C159.011 150.865 159.079 150.892 159.15 150.891ZM190.416 150.357H159.436V135.043H190.416V150.357Z" fill="#231F20"/>
<path d="M160.055 132.39C159.984 132.39 159.916 132.361 159.867 132.311C159.817 132.26 159.79 132.191 159.792 132.12V100.724C159.776 100.619 159.823 100.515 159.912 100.457C160.001 100.4 160.114 100.4 160.203 100.457C160.292 100.515 160.339 100.619 160.323 100.724V132.108C160.328 132.182 160.302 132.255 160.251 132.309C160.2 132.362 160.128 132.392 160.055 132.39Z" fill="#231F20"/>
<path d="M74.2842 151.478C74.1264 151.475 73.9984 151.349 73.9922 151.19C73.9907 151.112 74.02 151.037 74.0736 150.981C74.1273 150.925 74.2009 150.892 74.2783 150.891C77.3508 150.791 80.2298 149.359 82.1723 146.964C82.2244 146.9 82.3002 146.86 82.3825 146.853C82.4648 146.847 82.5456 146.877 82.6043 146.935C84.079 148.467 86.0058 149.479 88.0986 149.823C90.1844 150.137 92.2863 149.365 93.6804 147.774C93.778 147.654 93.952 147.631 94.0774 147.721C97.4755 149.972 102.025 149.203 104.505 145.96C104.563 145.889 104.65 145.847 104.742 145.847C104.834 145.847 104.921 145.889 104.978 145.96C107.413 149.4 112.761 150.327 116.2 147.909C116.322 147.82 116.492 147.843 116.586 147.962C117.487 148.984 118.777 149.573 120.136 149.582C121.492 149.658 122.816 149.143 123.767 148.167C123.833 148.101 123.926 148.068 124.018 148.079C124.109 148.092 124.189 148.146 124.234 148.226C124.616 148.824 125.22 149.244 125.912 149.389C126.604 149.535 127.325 149.395 127.913 149.001C128.043 148.907 128.223 148.933 128.321 149.06C128.367 149.123 128.386 149.201 128.374 149.278C128.362 149.356 128.32 149.425 128.257 149.47C127.544 149.982 126.647 150.161 125.793 149.964C125.059 149.818 124.401 149.415 123.937 148.825C121.71 150.707 118.426 150.583 116.346 148.537C112.767 150.885 107.425 149.975 104.774 146.618C102.093 149.791 97.5096 150.522 93.984 148.338C92.454 149.944 90.2471 150.709 88.0577 150.392C85.9422 150.058 83.9829 149.069 82.4525 147.563C80.402 149.963 77.4413 151.384 74.2959 151.478H74.2842Z" fill="#D1D3D4"/>
<path d="M115.751 154.067C114.617 154.104 113.517 153.681 112.697 152.893C110.216 154.687 106.779 154.255 104.815 151.901C102.613 153.38 99.9461 153.992 97.3237 153.621C97.2194 153.605 97.1314 153.535 97.0928 153.436C97.0542 153.337 97.0708 153.226 97.1365 153.143C97.2022 153.06 97.307 153.018 97.4113 153.034C99.9786 153.408 102.591 152.777 104.71 151.273C104.774 151.227 104.854 151.208 104.932 151.22C105.008 151.237 105.077 151.281 105.124 151.344C105.98 152.463 107.245 153.191 108.638 153.366C110.031 153.542 111.436 153.149 112.539 152.277C112.599 152.224 112.677 152.199 112.755 152.206C112.833 152.214 112.904 152.252 112.954 152.312C113.783 153.21 114.993 153.647 116.2 153.486C117.448 153.291 118.657 152.895 119.779 152.312C119.851 152.281 119.931 152.279 120.004 152.308C120.076 152.336 120.134 152.393 120.165 152.465C120.23 152.612 120.165 152.785 120.019 152.852C118.836 153.447 117.563 153.844 116.253 154.026C116.086 154.048 115.919 154.062 115.751 154.067Z" fill="#D1D3D4"/>
<path d="M81.5768 154.601C81.4325 154.6 81.3109 154.492 81.2907 154.349C81.2696 154.189 81.378 154.041 81.5359 154.014C82.7371 153.829 83.8392 153.237 84.6597 152.336C84.7133 152.279 84.7864 152.245 84.864 152.242C84.9425 152.237 85.0191 152.267 85.0742 152.324C85.6729 152.951 86.4736 153.344 87.3338 153.433C88.169 153.517 88.9863 153.151 89.4824 152.471C89.5355 152.39 89.6255 152.341 89.7218 152.341C89.8166 152.348 89.9049 152.392 89.967 152.465C90.5426 153.252 91.5721 153.553 92.4777 153.198C92.5745 153.153 92.6885 153.164 92.7747 153.227C92.861 153.291 92.9057 153.397 92.8912 153.504C92.8767 153.61 92.8054 153.7 92.7054 153.738C91.6765 154.14 90.5086 153.888 89.7335 153.099C89.0965 153.755 88.2022 154.092 87.2929 154.02C86.3964 153.934 85.5521 153.557 84.8874 152.946C83.9995 153.828 82.8572 154.405 81.6235 154.595L81.5768 154.601Z" fill="#D1D3D4"/>
<defs>
<linearGradient id="paint0_linear_0_563" x1="0" y1="202" x2="202" y2="202" gradientUnits="userSpaceOnUse">
<stop stop-color="#5D0202" stop-opacity="0.01"/>
<stop offset="1" stop-color="#5D0202" stop-opacity="0.497569"/>
</linearGradient>
</defs>
</svg>
